mtllib materials.mtl
v 0.02027506 -0.0236122 -0.0152114
v 0.01848131 -0.01661688 0.0241313
v 0.01966709 0.02275741 0.01718444
v 0.02146083 0.01576209 -0.02215827
v -0.3206228 -0.01631689 -0.03205091
v -0.319437 0.0230574 -0.03899777
v -0.3212307 0.03005272 0.0003449321
v -0.3224165 -0.00932157 0.007291794
v -0.3185647 -0.1083455 -0.04289603
v 0.02183664 0.1389511 -0.02651995
v -0.3188827 0.158614 -0.03499728
v -0.3194762 0.1345544 -0.06694704
v 0.0212431 0.1148916 -0.05846971
v 0.02693439 0.1827658 -0.1032181
v -0.3125089 0.2188458 -0.0982601
v -0.3166885 0.1791554 -0.09557652
v 0.02275485 0.1430755 -0.1005347
v 0.02046627 0.118871 -0.1761559
v -0.3193791 0.1475829 -0.1912845
v -0.3221446 0.1347602 -0.1534965
v 0.01770079 0.1060482 -0.138368
v 0.01397991 0.05066317 -0.1136673
v -0.3250181 0.01605016 -0.1344129
v -0.3294109 0.05530918 -0.1281326
v 0.009587109 0.08992207 -0.1073869
v 0.03154957 0.07601088 -0.06089741
v -0.3092779 0.05908865 -0.07081586
v -0.310028 0.08945286 -0.09684402
v 0.03079945 0.106375 -0.08692539
v -0.3182423 -0.1248646 -0.006467819
v 0.02267677 -0.1075718 -0.001643538
v 0.02235436 -0.09105265 -0.03807181
v -0.3010428 -0.2150944 -0.04264188
v -0.3007018 -0.2142777 -0.002651691
v 0.03982985 -0.1903028 -0.006045163
v 0.03948885 -0.1911196 -0.04603541
v -0.3049791 -0.2829142 -0.008969188
v -0.3042038 -0.2601847 0.02393621
v 0.0365597 -0.2800772 0.02964818
v 0.03578448 -0.3028066 -0.003257334
v -0.3195987 -0.3084793 0.06816828
v -0.3178034 -0.2691265 0.06123066
v 0.02282947 -0.2812774 0.08045948
v 0.02103412 -0.3206304 0.08739698
v -0.316345 -0.2567587 0.1349592
v -0.3160464 -0.257141 0.09496206
v 0.02515334 -0.2682675 0.09761614
v 0.02485472 -0.2678853 0.1376133
v -0.3157685 -0.1988872 0.1051279
v -0.3173373 -0.2304396 0.08059239
v 0.02284032 -0.2566187 0.09250778
v 0.02440912 -0.2250663 0.1170433
v -0.3096409 -0.1785834 0.0480628
v -0.3148272 -0.217482 0.05580956
v 0.02357233 -0.2591773 0.07299638
v 0.02875859 -0.2202787 0.06524974
v -0.310849 -0.1946442 0.01052678
v -0.3158721 -0.2293221 0.02981967
v 0.0228169 -0.2666559 0.05089384
v 0.0278399 -0.2319779 0.03160107
vn 0.9985541 -0.02136952 0.04932657
vn -0.9985541 0.02136935 -0.04932616
vn 0.05151185 0.118016 -0.9916747
vn 0.9989498 -0.001425723 0.04579852
vn 0.0448433 -0.1748825 -0.9835676
vn -0.04484329 0.1748825 0.9835676
vn -0.0418962 0.2655505 0.9631862
vn -0.998988 -0.01126646 -0.04354352
vn 0.0426732 -0.2429142 -0.9691088
vn 0.9975041 -0.06405643 0.02970611
vn 0.9998678 -0.003611482 -0.01585532
vn 0.003513536 -0.3439451 -0.9389833
vn -0.002967509 0.352101 0.9359573
vn -0.9998046 0.01935884 0.003995283
vn 0.02452883 0.7227901 0.6906322
vn -0.9985599 0.0501031 -0.01917913
vn -0.01020225 -0.5397096 -0.8417895
vn 0.9945193 -0.1044999 0.003349889
vn 0.9935991 -0.1070652 -0.03602605
vn -0.09585479 -0.8253449 -0.556433
vn 0.0988216 0.8612119 0.4985462
vn -0.9945047 0.1046903 -0.000522737
vn 0.07494758 0.7889239 -0.6099033
vn -0.9943303 0.1055681 0.01274918
vn -0.07483532 -0.7880316 0.6110694
vn 0.9974191 -0.04059817 0.05921886
vn 0.9877253 -0.1549536 0.01970447
vn -0.09089769 -0.7056232 0.7027329
vn 0.09234771 0.7449093 -0.6607437
vn -0.990886 0.1318049 -0.02779135
vn 0.007303461 -0.3971209 -0.9177373
vn -0.9959911 0.07605973 -0.04708104
vn -0.01657581 0.3054516 0.9520634
vn 0.9100429 0.1628096 -0.3812021
vn 0.957163 0.06184889 0.2828668
vn -0.1177575 0.8931534 0.4340624
vn 0.1136239 -0.6769953 -0.7271636
vn -0.9653043 -0.0676643 -0.2522087
vn 0.0513283 -0.8329399 0.5509778
vn -0.7307835 -0.1867971 0.6565534
vn -0.02507939 0.6830992 -0.7298949
vn -0.05430858 0.6490805 0.7587787
vn 0.7778497 -0.3978169 -0.4865096
vn -0.02137818 0.7898394 -0.612941
vn 0.0326031 -0.9051163 0.4239122
vn -0.9796227 0.1162161 0.1638088
vn -0.9987101 -0.03132102 -0.03996429
vn -0.05330162 -0.2745321 0.9600995
vn 0.9986163 0.03492015 0.03932087
vn 0.01415214 -5.767506E-05 -0.9998999
vn -0.002877918 0.3209488 -0.9470922
vn 0.9995605 0.02931129 0.004445356
vn -0.9997525 -0.02221349 -0.001225389
vn -0.008038091 -0.1185334 0.9929175
vn -0.9775132 -0.1951706 -0.07985287
vn -0.01131472 -0.0554647 0.9983966
vn 0.9767894 0.1982012 0.08123345
vn 0.02245659 -0.4456394 -0.8949309
vn -0.01533573 0.07671279 -0.9969353
vn 0.9854279 0.1696796 -0.01186805
vn -0.9867317 -0.1619356 0.01172082
vn 0.00685876 0.04398292 0.9990088
vn -0.9967701 0.08001366 0.006864992
vn -0.01678821 0.369935 0.928906
vn 0.9993442 -0.03602488 -0.003665971
vn -0.0497679 -0.9451949 -0.3226915
vn -0.005217007 -0.3575229 -0.9338898
vn -0.998579 0.05185486 -0.01229166
vn 0.01469311 0.5002863 0.8657354
vn -0.8965512 0.3740442 -0.2372487
vn 0.05757869 0.997574 0.03912472
vn 0.8991212 -0.3697557 0.2342262
vn -0.06269778 -0.787621 0.6129618
vn -0.02386742 -0.980193 -0.1966018
vn 0.9874061 -0.01732488 0.1572545
vn -0.9831944 0.01274967 -0.1821164
vn 0.02104982 0.9704571 0.2403541
vn -0.9981056 0.05147593 0.03369739
vn 0.06256662 0.7911547 -0.6084076
vn 0.9942144 -0.06095015 -0.08844744
vn 0.008024723 0.4581058 0.8888615
vn -0.02808175 -0.6881924 0.7249846
vn 0.99676 -0.08001339 0.008206419
vn -0.9972799 0.07325725 -0.008146269
vn 0.03330797 0.9412126 -0.3361688
vn -0.9986217 -0.05202189 -0.006958951
vn -0.006008733 -0.4026048 -0.9153542
vn 0.9803782 0.1970513 0.00543655
vn 0.06029286 0.9383658 0.3403445
vn 0.001752474 0.4330337 0.901376
vn 0.9987813 -0.01253855 -0.04773726
vn -0.9991952 0.02579215 0.03072167
vn -0.005645845 -0.4741 -0.8804529
vn -0.9944425 0.09083489 -0.05322668
vn -0.08052115 -0.9886768 0.1266273
vn 0.9915373 -0.111083 0.06718846
vn 0.1320831 0.9097776 -0.3935211
vn 0.1166011 0.9880177 0.10112
vn -0.99079 0.1193724 -0.06391677
vn -0.08457284 -0.879464 -0.4683914
vn -0.9913325 0.1295643 -0.02174682
vn -0.1318657 -0.9375978 0.321748
vn 0.9911533 -0.131805 0.01557646
vn 0.000771763 -0.4862534 -0.8738175
vn 0.123666 0.9362359 -0.3288907
vn -0.1251642 -0.9009509 0.4154773
vt -0.02138434 0.1073675
vt -0.01784814 0.105498
vt -0.01597857 0.1090342
vt -0.01951478 0.1109037
vt 0.02138436 0.1073675
vt 0.0195148 0.1109037
vt 0.01597859 0.1090341
vt 0.01784816 0.1054979
vt -0.02591436 0.0870831
vt -0.04077898 0.05634999
vt -0.03228899 0.05263096
vt -0.0185801 0.1099642
vt -0.01507113 0.108044
vt -0.01120875 0.119844
vt -0.03816259 0.1012895
vt -0.04158991 0.1033519
vt -0.05919196 0.07410038
vt -0.05576463 0.07203799
vt 0.03816259 0.1012895
vt 0.05576463 0.07203799
vt 0.05919196 0.07410038
vt 0.04158991 0.1033519
vt 0.0443541 0.107158
vt 0.06252456 0.07825615
vt 0.07392669 0.08517115
vt 0.01391237 0.1083904
vt 0.01740264 0.1103444
vt 0.01249828 0.1207402
vt -0.06196742 0.07740697
vt -0.04392759 0.1063905
vt -0.07192169 0.08315503
vt -0.02071801 0.1213619
vt -0.01672196 0.1215395
vt -0.02056307 0.1295101
vt -0.01711896 0.1162085
vt -0.02111399 0.1160092
vt -0.02366853 0.1057658
vt -0.04648234 0.1119112
vt -0.05557526 0.117275
vt -0.07478629 0.08905416
vt 0.07598494 0.09000968
vt 0.05674522 0.118211
vt 0.04618292 0.1116845
vt 0.02108087 0.1191048
vt 0.01708554 0.1192979
vt 0.02139469 0.1066782
vt 0.06321561 0.1231483
vt 0.08255528 0.09501541
vt 0.08969699 0.1000852
vt 0.01682057 0.1206912
vt 0.02081642 0.120509
vt 0.02065779 0.1258139
vt -0.08019271 0.09484465
vt -0.06057317 0.122783
vt -0.08456438 0.09785382
vt -0.02738684 0.1258282
vt -0.02556692 0.1293902
vt -0.03512381 0.127627
vt -0.02949513 0.1269448
vt -0.03113983 0.1232985
vt -0.02875642 0.1188286
vt -0.06447108 0.1196058
vt -0.06875379 0.1223112
vt -0.08747634 0.0937639
vt 0.08896874 0.09223124
vt 0.07072945 0.1210897
vt 0.06333432 0.1162322
vt 0.0271946 0.1254209
vt 0.02538678 0.128989
vt 0.02304174 0.1205506
vt 0.01584018 0.06329985
vt 0.01240984 0.02933348
vt 0.02410772 0.02835828
vt 0.02710785 0.1283897
vt 0.0288579 0.1247928
vt 0.03610689 0.1237896
vt -0.01446426 0.02911388
vt -0.01793053 0.06307659
vt -0.02174561 0.0283816
vt -0.0235725 0.1263769
vt -0.02578916 0.1297065
vt -0.02498698 0.1204681
vt -0.03634229 0.130224
vt -0.03372515 0.1271991
vt -0.02857937 0.1285407
vt -0.007548728 0.06089314
vt -0.01275923 0.05983018
vt -0.008211389 0.02599531
vt 0.01648775 0.02545979
vt 0.0196015 0.05945664
vt 0.009972489 0.06077008
vt 0.03320495 0.1259384
vt 0.03575143 0.1290232
vt 0.02408105 0.1302856
vt -0.06159058 0.1213418
vt -0.08187687 0.0938837
vt -0.06988651 0.08601592
vt 0.02911714 0.1300515
vt 0.02676181 0.1268185
vt 0.02925273 0.1188259
vt 0.07619824 0.08804379
vt 0.05623344 0.1157365
vt 0.06937398 0.08319451
vt -0.06444056 0.05358456
vt -0.06414813 0.04959527
vt -0.05913667 0.0530944
vt -0.0007056416 0.1296331
vt 0.002919498 0.1313238
vt 0.002377779 0.1348683
vt 0.06984141 0.1224687
vt 0.06713046 0.1201218
vt 0.08331738 0.0900641
vt -0.08078738 0.09121983
vt -0.06402291 0.1209593
vt -0.07158857 0.1263214
vt -0.00438294 0.1238954
vt -0.0007861719 0.1221451
vt -0.008069499 0.1344992
vt -0.02999725 0.07840953
vt -0.03436163 0.04455051
vt -0.02665101 0.04596217
vt 0.07031516 0.0002904266
vt 0.07338514 0.002854655
vt 0.07394718 0.007843522
vt 0.00981415 0.03976389
vt 0.009912767 0.07390289
vt 0.005445425 0.04223754
vt 0.063839 0.1244997
vt 0.06038747 0.1224781
vt 0.07764161 0.09302007
vt 0.08109315 0.0950417
vt -0.06033839 0.1041594
vt -0.06334803 0.1067942
vt -0.06566192 0.1043367
vt 0.02185524 0.07357676
vt 0.01928187 0.07576105
vt 0.02028174 0.04163656
vt -0.03875627 0.04763308
vt -0.03344592 0.08135668
vt -0.03945614 0.08024503
vt 0.05114347 0.1064616
vt 0.04956153 0.1027877
vt 0.05706977 0.1005354
vt 0.01800611 0.1065089
vt 0.01454778 0.104499
vt 0.02307788 0.0965739
vt 0.03206053 0.04839275
vt 0.0193469 0.08007625
vt 0.01039517 0.07700805
vt -0.01528798 0.1027398
vt -0.01874024 0.1047601
vt -0.02316186 0.097491
vt -0.02440559 0.09248527
vt -0.038172 0.0612448
vt -0.02784712 0.05801665
vt -0.01693485 0.04752729
vt -0.007119907 0.08022512
vt -0.01389348 0.08243196
vt -0.02181279 0.1024345
vt -0.02773729 0.09847833
vt -0.025856 0.09494834
vt 0.02738893 0.09440593
vt 0.02931123 0.09791375
vt 0.02291931 0.104626
vt 0.01738499 0.08724911
vt 0.02990716 0.05548943
vt 0.04066873 0.05993444
vt 0.003655446 0.1007724
vt 0.002982806 0.09682934
vt 0.01035372 0.09145915
vt 0.0335876 0.05818508
vt 0.02037522 0.08966387
vt 0.01216655 0.08761497
vt -0.007978607 0.09592371
vt -0.008625101 0.09987113
vt -0.01528459 0.09165722
vt -0.03404529 0.1066296
vt -0.04978333 0.07633451
vt -0.04351877 0.07206323
vt -0.0225473 0.05672752
vt -0.01024365 0.08857247
vt -0.02006114 0.09127819
vt -0.01869453 0.09309801
vt -0.02664407 0.08673336
vt -0.02385354 0.08386753
vt 0.02221926 0.08624758
vt 0.02504577 0.08907792
vt 0.01726677 0.09659533
vt 0.0161876 0.09276909
vt 0.02961316 0.06138062
vt 0.03837448 0.06391215
vt 0.04203203 0.08862782
vt 0.03856841 0.08662698
vt 0.03868092 0.08131156
vt 0.04513689 0.07317534
vt 0.02967177 0.1036107
vt 0.02154893 0.09837038
vt -0.03439349 0.08986881
vt -0.03777687 0.09200246
vt -0.04036175 0.08031935
vt -0.0363627 0.08040502
vt -0.04479172 0.1051344
vt -0.06132862 0.07526781
vt -0.05475166 0.07027595
vt -0.03901643 0.070182
vt -0.01983716 0.09842448
vt -0.02992984 0.1048521
vt 0.03614243 0.08250071
vt 0.040142 0.08244221
vt 0.0391605 0.08996053
vt 0.02575859 0.1034949
vt 0.04524379 0.07546265
vt 0.04958779 0.07852793
vt 0.03981672 0.09041943
vt 0.03581692 0.09045849
vt 0.03325243 0.08729918
vt 0.05840308 0.06300423
vt 0.04545274 0.09459172
vt 0.0412123 0.09147145
vt -0.03594895 0.1035929
vt -0.03994876 0.1035538
vt -0.0318315 0.1003121
vt -0.03153213 0.06709722
vt -0.03140569 0.03295831
vt -0.02296969 0.03350631
vt -0.05522208 0.06673582
vt -0.03922311 0.09689397
vt -0.04702925 0.1020514
vt -0.03285399 0.09321427
vt -0.02757412 0.08549044
vt -0.02531498 0.08879139
vt 0.02065538 0.0877463
vt 0.02300037 0.08450577
vt 0.02659086 0.09194105
vt 0.04014308 0.09884018
vt 0.05661202 0.06893607
vt 0.05950202 0.07180063
vt 0.03806727 0.07290612
vt 0.03666762 0.07665325
vt 0.03314719 0.07598091
vt 0.02987566 0.03308497
vt 0.02986358 0.06722411
vt 0.02771628 0.06750555
vt -0.03591809 0.07137503
vt -0.03700164 0.06752459
vt -0.03379642 0.07180936
vt 0.02167434 0.09902979
vt 0.04034233 0.0704468
vt 0.04587647 0.07387708
vt -0.01466405 0.03525356
vt -0.01931119 0.06907494
vt -0.02649788 0.06783615
vt -0.03435961 0.07615047
vt -0.02729062 0.07794283
vt -0.03069237 0.08004715
vt 0.03127457 0.07862638
vt 0.02788343 0.07650502
vt 0.03630157 0.0757297
vt 0.03610367 0.07811639
vt 0.04175598 0.04444842
vt 0.04531387 0.0448807
vt 0.02192788 0.07547032
vt 0.02505444 0.07796524
vt 0.02448065 0.0809455
vt -0.04002899 0.06986447
vt -0.02148735 0.09852959
vt -0.02269671 0.09898658
vt -0.01948334 0.07237133
vt -0.01693668 0.06928675
vt -0.01888032 0.0735149
vt 0.03748505 0.09987663
vt 0.05494841 0.07054214
vt 0.06004407 0.07387327
vt 0.04523636 0.073073
vt 0.02516229 0.1006866
vt 0.02107523 0.0982651
vt -0.02780106 0.07116595
vt -0.02735222 0.07589526
vt -0.03108647 0.07446156
vt 0.0316912 0.07901354
vt 0.02793928 0.08040033
vt 0.02845877 0.07391006
vt -0.02491752 0.1007841
vt -0.04506887 0.07322679
vt -0.04241226 0.07175928
vt 0.02503008 0.08525162
vt 0.02884626 0.08405293
vt 0.03014063 0.08654462
vt -0.05028627 0.05097152
vt -0.03951707 0.08336759
vt -0.04137787 0.08401194
vt -0.02908862 0.08637924
vt -0.0252726 0.08757806
vt -0.0292504 0.09095746
vt -0.03083662 0.08728553
vt 0.03617604 0.06874126
vt 0.04089142 0.03492934
vt 0.04495084 0.0353818
vt 0.05835913 0.06217165
vt 0.04287762 0.09259866
vt 0.0382774 0.09013247
vt 0.03073274 0.08713328
vt 0.02917985 0.09081955
vt 0.02561038 0.08588792
vt -0.03780805 0.1041212
vt -0.05754904 0.0762685
vt -0.05523863 0.07467291
vt 0.03254223 0.08883207
vt 0.03390571 0.08507162
vt 0.03674497 0.08539732
vt 0.03658791 0.08939423
vt -0.04544923 0.03862971
vt -0.03874137 0.07210337
vt -0.04104717 0.07246874
vt -0.03320818 0.08443301
vt -0.03187534 0.08820442
vt -0.03536826 0.08891074
vt -0.03549291 0.08491269
vt -0.02950102 0.1039616
vt -0.05081014 0.07728949
vt -0.04768503 0.07479274
vt -0.0263759 0.1014649
vt 0.0485162 0.03943548
vt 0.04152817 0.07285177
vt 0.03800902 0.07229047
vt -0.03868256 0.06863971
vt -0.04327746 0.0348112
vt -0.0404306 0.03456036
o group1349871061
g mesh1349871061
usemtl mat18
f 4/4/1 3/3/1 2/2/1 1/1/1
f 8/8/2 7/7/2 6/6/2 5/5/2
f 9/11/3 5/10/3 1/9/3
f 10/14/4 3/13/4 4/12/4
f 5/18/5 6/17/5 4/16/5 1/15/5
f 3/22/6 7/21/6 8/20/6 2/19/6
f 11/25/7 7/24/7 3/23/7
f 12/28/8 6/27/8 7/26/8
f 12/31/9 4/30/9 6/29/9
f 14/34/10 10/33/10 13/32/10
f 4/37/11 13/36/11 10/35/11
f 12/40/12 13/39/12 4/38/12
f 3/43/13 10/42/13 11/41/13
f 7/46/14 11/45/14 12/44/14
f 15/49/15 11/48/15 10/47/15
f 16/52/16 12/51/16 11/50/16
f 16/55/17 13/54/17 12/53/17
f 18/58/18 14/57/18 17/56/18
f 13/61/19 17/60/19 14/59/19
f 16/64/20 17/63/20 13/62/20
f 10/67/21 14/66/21 15/65/21
f 11/70/22 15/69/22 16/68/22
f 19/73/23 15/72/23 14/71/23
f 20/76/24 16/75/24 15/74/24
f 20/79/25 17/78/25 16/77/25
f 22/82/26 18/81/26 21/80/26
f 17/85/27 21/84/27 18/83/27
f 20/88/28 21/87/28 17/86/28
f 14/91/29 18/90/29 19/89/29
f 15/94/30 19/93/30 20/92/30
f 23/97/31 19/96/31 18/95/31
f 24/100/32 20/99/32 19/98/32
f 24/103/33 21/102/33 20/101/33
f 26/106/34 22/105/34 25/104/34
f 21/109/35 25/108/35 22/107/35
f 24/112/36 25/111/36 21/110/36
f 18/115/37 22/114/37 23/113/37
f 19/118/38 23/117/38 24/116/38
f 27/121/39 23/120/39 22/119/39
f 28/124/40 24/123/40 23/122/40
f 28/127/41 25/126/41 24/125/41
f 28/131/42 27/130/42 26/129/42 29/128/42
f 25/134/43 29/133/43 26/132/43
f 28/137/44 29/136/44 25/135/44
f 22/140/45 26/139/45 27/138/45
f 23/143/46 27/142/46 28/141/46
f 30/146/47 8/145/47 5/144/47
f 31/149/48 2/148/48 8/147/48
f 31/152/49 1/151/49 2/150/49
f 33/155/50 9/154/50 32/153/50
f 1/158/51 32/157/51 9/156/51
f 31/161/52 32/160/52 1/159/52
f 5/164/53 9/163/53 30/162/53
f 8/167/54 30/166/54 31/165/54
f 34/170/55 30/169/55 9/168/55
f 35/173/56 31/172/56 30/171/56
f 35/176/57 32/175/57 31/174/57
f 37/179/58 33/178/58 36/177/58
f 32/182/59 36/181/59 33/180/59
f 35/185/60 36/184/60 32/183/60
f 9/188/61 33/187/61 34/186/61
f 30/191/62 34/190/62 35/189/62
f 38/194/63 34/193/63 33/192/63
f 39/197/64 35/196/64 34/195/64
f 39/201/65 40/200/65 36/199/65 35/198/65
f 41/204/66 37/203/66 40/202/66
f 36/207/67 40/206/67 37/205/67
f 33/210/68 37/209/68 38/208/68
f 34/213/69 38/212/69 39/211/69
f 42/216/70 38/215/70 37/214/70
f 43/219/71 39/218/71 38/217/71
f 43/222/72 40/221/72 39/220/72
f 45/225/73 41/224/73 44/223/73
f 40/228/74 44/227/74 41/226/74
f 43/231/75 44/230/75 40/229/75
f 37/234/76 41/233/76 42/232/76
f 38/237/77 42/236/77 43/235/77
f 46/240/78 42/239/78 41/238/78
f 47/243/79 43/242/79 42/241/79
f 47/246/80 44/245/80 43/244/80
f 49/249/81 45/248/81 48/247/81
f 44/252/82 48/251/82 45/250/82
f 47/255/83 48/254/83 44/253/83
f 41/258/84 45/257/84 46/256/84
f 42/261/85 46/260/85 47/259/85
f 50/264/86 46/263/86 45/262/86
f 51/267/87 47/266/87 46/265/87
f 51/270/88 48/269/88 47/268/88
f 53/273/89 49/272/89 52/271/89
f 48/276/90 52/275/90 49/274/90
f 51/279/91 52/278/91 48/277/91
f 45/282/92 49/281/92 50/280/92
f 46/285/93 50/284/93 51/283/93
f 54/288/94 50/287/94 49/286/94
f 55/291/95 51/290/95 50/289/95
f 55/295/96 56/294/96 52/293/96 51/292/96
f 57/298/97 53/297/97 56/296/97
f 52/301/98 56/300/98 53/299/98
f 49/304/99 53/303/99 54/302/99
f 50/307/100 54/306/100 55/305/100
f 57/311/101 58/310/101 54/309/101 53/308/101
f 59/314/102 55/313/102 54/312/102
f 59/318/103 60/317/103 56/316/103 55/315/103
f 59/322/104 58/321/104 57/320/104 60/319/104
f 56/325/105 60/324/105 57/323/105
f 54/328/106 58/327/106 59/326/106
